<svg xmlns="http://www.w3.org/2000/svg" width="69.333" height="69.336" viewBox="0 0 69.333 69.336"><defs><style>.a{fill:#fff;}</style></defs><g transform="translate(-1 -1)"><g transform="translate(1 1)"><rect class="a" width="2" height="2" transform="translate(21.667 60.667)"/><rect class="a" width="2" height="2" transform="translate(15.667 62.667)"/><rect class="a" width="2" height="2" transform="translate(25.667 62.667)"/><path class="a" d="M55.8,28.165v-4.8h2.237V6.591a5.591,5.591,0,0,0-11.183,0V23.366h2.237v4.8a17.858,17.858,0,0,0-9.18,4.819,22.62,22.62,0,0,0-6.476-4.969V9.946A4.473,4.473,0,1,0,33.43,1H13.3a4.473,4.473,0,0,0,0,8.946V28.015a22.345,22.345,0,0,0-4.848,36.62,22.106,22.106,0,0,0,14.876,5.7,23.521,23.521,0,0,0,2.589-.144A22.421,22.421,0,0,0,42.04,60.26,17.878,17.878,0,1,0,55.8,28.165ZM49.086,6.591a3.355,3.355,0,0,1,6.71,0V21.129h-6.71Zm2.237,16.774h2.237V27.9c-.371-.023-.74-.057-1.118-.057s-.747.034-1.118.057ZM3.237,47.968A20.206,20.206,0,0,1,14.891,29.729l.646-.3v-1.59h8.946V25.6H15.538V23.366H26.72V21.129H15.538V18.892h8.946V16.656H15.538V14.419H26.72V12.183H15.538V7.71H13.3a2.237,2.237,0,0,1,0-4.473H33.43a2.237,2.237,0,1,1,0,4.473H20.011V9.946H31.194V29.429l.646.3a20.343,20.343,0,0,1,6.57,4.935,17.793,17.793,0,0,0-3.272,6.593H32.312a10.06,10.06,0,0,0-8.657,4.956,10.078,10.078,0,0,0-9.236-6.074H6.591v1.118A10.076,10.076,0,0,0,16.656,51.323h5.591v5.626c-4.985.293-7.648,2.531-10.227,4.7-.625.526-1.235,1.02-1.861,1.493-.07-.062-.146-.112-.216-.174A20.164,20.164,0,0,1,3.237,47.968Zm31.566.643A7.814,7.814,0,0,1,30.075,50.2H24.563a7.84,7.84,0,0,1,7.749-6.71H34.7a16.331,16.331,0,0,0,.1,5.116Zm-12.634.475H16.656a7.84,7.84,0,0,1-7.749-6.71h5.512A7.84,7.84,0,0,1,22.168,49.086Zm3.5,18.882A19.942,19.942,0,0,1,12,64.563c.5-.4.992-.8,1.467-1.2,2.57-2.166,5-4.211,9.9-4.211s7.331,2.044,9.9,4.21c.474.4.962.8,1.465,1.2A19.857,19.857,0,0,1,25.671,67.968Zm10.893-4.83c-.625-.472-1.232-.964-1.855-1.488-2.579-2.171-5.24-4.408-10.226-4.7V52.441h5.591a10.055,10.055,0,0,0,5.256-1.484A17.9,17.9,0,0,0,40.3,58.832,20.419,20.419,0,0,1,36.565,63.138Zm15.876-1.751A15.656,15.656,0,1,1,68.1,45.731,15.673,15.673,0,0,1,52.441,61.387Z" transform="translate(-1 -1)"/><path class="a" d="M48.419,29A13.419,13.419,0,1,0,61.839,42.419,13.434,13.434,0,0,0,48.419,29Zm0,24.6A11.183,11.183,0,1,1,57.344,35.71H49.538A10.076,10.076,0,0,0,39.473,45.774v1.118H47.3A10.076,10.076,0,0,0,57.366,36.828V35.739A11.161,11.161,0,0,1,48.419,53.6Zm6.63-15.656a7.84,7.84,0,0,1-7.749,6.71H41.789a7.84,7.84,0,0,1,7.749-6.71Z" transform="translate(3.022 2.312)"/></g></g></svg>