<svg xmlns="http://www.w3.org/2000/svg" width="69.352" height="69.341" viewBox="0 0 69.352 69.341"><g transform="translate(0.01 0)"><path d="M16.43,69.248a2.168,2.168,0,0,0,.628.093H33.582a2.145,2.145,0,0,0,1.084-.3,2.143,2.143,0,0,0,1.083.3H52.274a2.167,2.167,0,0,0,.628-.093C64.508,65.736,68.13,54.83,69.257,48.642A4.367,4.367,0,0,0,68.335,45a4.733,4.733,0,0,0-3.6-1.659A4.272,4.272,0,0,0,60.5,46.645,9.523,9.523,0,0,0,60.224,49a7.211,7.211,0,0,0-.64.686V37.379a3.783,3.783,0,0,0-5.426-3.417,3.785,3.785,0,0,0-6.492-2.482,3.789,3.789,0,0,0-6.5,2.649V34.5a3.715,3.715,0,0,0-2.583-.244q-.1,1.234-.255,2.592a1.619,1.619,0,0,1,2.837,1.073V44.5c.743.147,1.468.316,2.167.511V34.129a1.625,1.625,0,1,1,3.25,0V46.156a20.585,20.585,0,0,1,2.167,1.091V34.129a1.625,1.625,0,1,1,3.25,0V49.734a10.42,10.42,0,0,1,1.47,1.9q-1.229.075-2.405.23c-2.621-3.324-8.5-5.631-15.567-5.8a34.415,34.415,0,0,1,.355-6.99C37.393,28.486,36.37,23.721,34.371,21c0-.016,0-.031,0-.047-.422-2.587-.5-6.193,1.515-8.682,1.384-1.709,3.629-2.716,6.679-3,.423,2.038.924,7.365-4.518,10.041a6.933,6.933,0,0,1,2.591-5.078A1.083,1.083,0,1,0,39.2,12.61c-4.446,3.939-3.159,8.385-3.1,8.573a1.083,1.083,0,0,0,1.4.7c10.214-3.647,6.955-14,6.92-14.1a1.075,1.075,0,0,0-1.08-.745c-4.143.194-7.217,1.493-9.137,3.862a11.593,11.593,0,0,0-2.229,7.8c-.085-.053-.169-.1-.253-.156-.436-.295-.882-.573-1.331-.852-.632-.392-1.285-.8-1.9-1.26C26.566,14.984,24.2,12.6,23.871,9.506c-.239-2.223.6-4.575,2.49-7a8.513,8.513,0,0,1,3.432,10.062,7.068,7.068,0,0,1-1.462-5.256,1.083,1.083,0,0,0-2.162-.152c-.416,5.9,3.385,8.084,3.547,8.174a1.083,1.083,0,0,0,1.511-.5C35.7,5.033,26.72.172,26.629.124A1.083,1.083,0,0,0,25.3.377c-2.708,3.152-3.914,6.3-3.586,9.36a11.258,11.258,0,0,0,3.316,6.532,9.2,9.2,0,0,0-2.836.289c-3.036.814-5.547,3.219-7.465,7.148a1.084,1.084,0,0,0,.235,1.268,12.808,12.808,0,0,0,7.947,3.2q.183,0,.368-.007a10.861,10.861,0,0,0,7.638-3.871,1.083,1.083,0,0,0-.075-1.543c-.15-.134-3.742-3.251-9.249-.643a1.084,1.084,0,1,0,.928,1.958,6.815,6.815,0,0,1,5.854-.311c-4.808,4.229-9.619,1.4-11.308.144,1.562-2.889,3.473-4.652,5.688-5.246,2.718-.729,5.553.383,7.692,1.661,3.008,2.058,5.2,5.091,3.259,18.451a35.9,35.9,0,0,0-.363,7.312c-6.855.261-12.519,2.543-15.079,5.79q-1.177-.153-2.405-.23a10.422,10.422,0,0,1,1.47-1.9V34.129a1.625,1.625,0,1,1,3.25,0V47.246a20.583,20.583,0,0,1,2.167-1.091V34.129a1.625,1.625,0,1,1,3.25,0V45.012c.7-.195,1.424-.364,2.167-.511v-6.58a1.625,1.625,0,0,1,3.25,0v1.722c.047-.395.089-.784.149-1.192.19-1.305.34-2.5.455-3.591a3.756,3.756,0,0,0-3.854-.36v-.371a3.789,3.789,0,0,0-6.5-2.649,3.785,3.785,0,0,0-6.492,2.482,3.783,3.783,0,0,0-5.426,3.417V49.688A7.212,7.212,0,0,0,9.107,49a9.523,9.523,0,0,0-.274-2.356A4.272,4.272,0,0,0,4.6,43.338,4.732,4.732,0,0,0,1,45a4.367,4.367,0,0,0-.922,3.645C1.2,54.83,4.824,65.735,16.43,69.248ZM54.168,37.379a1.625,1.625,0,1,1,3.25,0V51.592c-.521-.019-1.038-.031-1.544-.031-.577,0-1.144.016-1.706.04Zm1.705,16.349c1.322,0,2.732.066,4.236.211A5.025,5.025,0,0,1,62.455,50a8.034,8.034,0,0,1,.143-2.816A2.12,2.12,0,0,1,64.73,45.5a2.324,2.324,0,0,1,2.395,2.749c-.995,5.464-4.256,15.713-14.851,18.92H35.749c0-5.827,6.367-10.979,12.053-12.477a31.613,31.613,0,0,1,8.071-.968ZM34.666,48.213c5.921,0,11.2,1.681,13.865,4.085-.433.093-.861.191-1.28.3-5.123,1.349-10.377,5.121-12.585,9.881C32.457,57.721,27.2,53.95,22.081,52.6c-.419-.11-.847-.209-1.28-.3C23.471,49.894,28.745,48.213,34.666,48.213ZM11.913,37.379a1.625,1.625,0,1,1,3.25,0V51.6c-.562-.024-1.129-.04-1.705-.04-.506,0-1.023.013-1.545.031ZM4.6,45.5a2.12,2.12,0,0,1,2.132,1.678A8.034,8.034,0,0,1,6.876,50a5.025,5.025,0,0,1,2.346,3.94c1.5-.145,2.914-.211,4.236-.211a31.61,31.61,0,0,1,8.071.968c5.686,1.5,12.053,6.649,12.053,12.477H17.057C6.462,63.967,3.2,53.718,2.206,48.254A2.324,2.324,0,0,1,4.6,45.5Z" transform="translate(0 0)"/></g></svg>