<svg xmlns="http://www.w3.org/2000/svg" width="33.543" height="33.543" viewBox="0 0 33.543 33.543"><defs><style>.a{fill:#fff;}</style></defs><g transform="translate(-1 -1)"><g transform="translate(1 1)"><path class="a" d="M33.824,1.719a2.316,2.316,0,0,0-3.354,0l-12.7,12.7-12.7-12.7a2.316,2.316,0,0,0-3.354,0,2.316,2.316,0,0,0,0,3.354l12.7,12.7-12.7,12.7a2.316,2.316,0,0,0,0,3.354,2.175,2.175,0,0,0,1.677.719,2.175,2.175,0,0,0,1.677-.719l12.7-12.7,12.7,12.7a2.316,2.316,0,0,0,3.354,0,2.316,2.316,0,0,0,0-3.354l-12.7-12.7,12.7-12.7A2.316,2.316,0,0,0,33.824,1.719Z" transform="translate(-1 -1)"/></g></g></svg>