<svg xmlns="http://www.w3.org/2000/svg" width="20.901" height="20.901" viewBox="0 0 20.901 20.901"><defs><style>.a{fill:#fff;}</style></defs><g transform="translate(-22 -22)"><g transform="translate(22 22)"><path class="a" d="M32.45,974.362a10.45,10.45,0,1,0,10.45,10.45A10.467,10.467,0,0,0,32.45,974.362Zm0,2.239a8.211,8.211,0,1,1-8.211,8.211A8.194,8.194,0,0,1,32.45,976.6Zm0,1.866a1.12,1.12,0,0,0-1.12,1.12v4.105H27.225a1.12,1.12,0,1,0,0,2.239h4.105v4.106a1.12,1.12,0,0,0,2.239,0v-4.106h4.105a1.12,1.12,0,1,0,0-2.239H33.57v-4.105A1.12,1.12,0,0,0,32.45,978.468Z" transform="translate(-22 -974.362)"/></g></g></svg>