<svg xmlns="http://www.w3.org/2000/svg" width="15.262" height="15.521" viewBox="0 0 15.262 15.521"><defs><style>.a{fill:#1a2d00;}</style></defs><g transform="translate(0 0)"><path class="a" d="M16.449,31.365H30.813a.449.449,0,0,0,.449-.449v-9.1a.449.449,0,0,0-.219-.385l-.854-.51a.445.445,0,0,0-.274-.06V18.123a.449.449,0,0,0-.449-.449H25.85a.446.446,0,0,0-.173-.328l-1.837-1.409a.449.449,0,0,0-.555.006l-1.78,1.432a.447.447,0,0,0-.164.3H17.8a.449.449,0,0,0-.449.449v2.744a.447.447,0,0,0-.369.058l-.779.521a.45.45,0,0,0-.2.373v9.1A.449.449,0,0,0,16.449,31.365Zm.449-.9V22.916l6.671,4.507a.449.449,0,0,0,.512-.006l6.283-4.477v7.527Zm13.286-8.5-.268.191v-.352Zm-6.609-5.1,1.056.811H22.566Zm5.443,1.709V22.8l-5.2,3.708-5.569-3.763V18.572ZM17.347,21.759v.377l-.281-.19Z" transform="translate(-16 -15.844)"/><path class="a" d="M35.449,46.9h5.835a.449.449,0,0,0,0-.9H35.449a.449.449,0,1,0,0,.9Z" transform="translate(-30.736 -39.232)"/><path class="a" d="M35.449,35.9h2.469a.449.449,0,1,0,0-.9H35.449a.449.449,0,1,0,0,.9Z" transform="translate(-30.736 -30.701)"/></g></svg>